<?xml version="1.0" standalone="no"?><!DOCTYPE svg PUBLIC "-//W3C//DTD SVG 1.1//EN" "http://www.w3.org/Graphics/SVG/1.1/DTD/svg11.dtd"><svg t="1676000658339" class="icon" viewBox="0 0 1024 1024" version="1.1" xmlns="http://www.w3.org/2000/svg" p-id="2867" xmlns:xlink="http://www.w3.org/1999/xlink" width="200" height="200"><path d="M710.91 839.02h-402.6c-16.59 0-30.04-13.45-30.04-30.04s13.45-30.04 30.04-30.04h402.6c104.58 0 189.67-85.09 189.67-189.67 0-104.59-85.09-189.67-189.67-189.67H254.35c-16.59 0-30.04-13.45-30.04-30.04s13.45-30.04 30.04-30.04H710.9c66.47 0 129.11 26.04 176.41 73.34 47.29 47.29 73.34 109.94 73.34 176.41S934.6 718.4 887.31 765.69c-47.29 47.29-109.94 73.33-176.4 73.33z" fill="#ffffff" p-id="2868"></path><path d="M78.5 334.46l187.79-144.03c20.2-15.5 45.46 3.87 45.46 34.86v288.06c0 30.99-25.25 50.36-45.46 34.86L78.5 404.19c-20.2-15.5-20.2-54.23 0-69.73z" fill="#ffffff" p-id="2869"></path></svg>