<?xml version="1.0" standalone="no"?><!DOCTYPE svg PUBLIC "-//W3C//DTD SVG 1.1//EN" "http://www.w3.org/Graphics/SVG/1.1/DTD/svg11.dtd"><svg t="1676000679073" class="icon" viewBox="0 0 1024 1024" version="1.1" xmlns="http://www.w3.org/2000/svg" p-id="3666" xmlns:xlink="http://www.w3.org/1999/xlink" width="200" height="200"><path d="M714.96 837.84H313.81c-66.23 0-128.65-25.95-175.77-73.07C90.93 717.65 64.97 655.23 64.97 589s25.95-128.65 73.07-175.77c47.12-47.12 109.54-73.07 175.77-73.07h454.9c16.53 0 29.93 13.4 29.93 29.93s-13.4 29.93-29.93 29.93h-454.9c-104.21 0-188.99 84.78-188.99 188.99S209.6 778 313.81 778h401.14c16.53 0 29.93 13.4 29.93 29.93s-13.39 29.91-29.92 29.91z" fill="#ffffff" p-id="3667"></path><path d="M943.93 335.1L756.82 191.59c-20.13-15.44-45.29 3.86-45.29 34.74v287.02c0 30.88 25.16 50.18 45.29 34.74l187.11-143.51c20.13-15.44 20.13-54.04 0-69.48z" fill="#ffffff" p-id="3668"></path></svg>